<?xml version="1.0" encoding="utf-8"?>
<!-- Generator: Adobe Illustrator 23.0.1, SVG Export Plug-In . SVG Version: 6.00 Build 0)  -->
<svg version="1.1" id="Layer_1" xmlns="http://www.w3.org/2000/svg" xmlns:xlink="http://www.w3.org/1999/xlink" x="0px" y="0px"
	 viewBox="0 0 512 512" style="enable-background:new 0 0 512 512;" xml:space="preserve">
<style type="text/css">
	.st0{fill-rule:evenodd;clip-rule:evenodd;fill:#48BEFC;}
	.st1{fill:#48BEFC;}
	.st2{font-family:'Babylon';}
	.st3{font-size:234.9048px;}
</style>
<path class="st0" d="M305.75,266h9.54h136.51c0,0,18.96,0.52,19.09,18.11c0,0,2.83,15.12-19.09,15.09H274.63c0,0-2.99-0.19-2.49,6.9
	v20.7c0,0-0.32,3.32,4.56,2.16l175.1,0.43c0,0,43.83,2.63,49.38-36.22c1.5-8.26,4.83-43.35-36.93-53.9H315.71
	c0,0-17.64,0.61-15.35-20.27c0,0-1.56-14.23,13.69-14.23h181.32c0,0,5.58,0.43,5.81-2.59v-17.68c0,0,0.85-5.19-4.98-7.33
	l-171.76,0.06c0.16,0.54-50.23-5.69-51.47,32.28C272.97,209.52,264.63,260.31,305.75,266z"/>
<g>
	<text transform="matrix(1.0063 0 0 1 -5.938 334.4482)" class="st1 st2 st3">p</text>
</g>
</svg>
