<svg width="53" height="46" viewBox="0 0 53 46" fill="none" xmlns="http://www.w3.org/2000/svg">
<path d="M26.2861 19.7147C18.1325 19.7147 6.57211 32.3193 6.57211 40.2758C6.57211 43.8592 9.32488 46 13.9382 46C18.9529 46 22.2642 43.4249 26.2861 43.4249C30.3429 43.4249 33.6634 46 38.634 46C43.2473 46 46.0001 43.8592 46.0001 40.2758C46.0001 32.3193 34.4397 19.7147 26.2861 19.7147ZM11.1638 18.4199C10.096 14.8622 6.80622 12.5581 3.81626 13.2727C0.826311 13.9874 -0.731299 17.4507 0.336541 21.0084C1.40438 24.5662 4.69415 26.8703 7.6841 26.1556C10.6741 25.441 12.2317 21.9777 11.1638 18.4199ZM19.8626 16.2863C23.0394 15.4505 24.6289 11.1586 23.4132 6.7004C22.1975 2.24216 18.6367 -0.693372 15.4598 0.142418C12.283 0.978209 10.6936 5.27011 11.9093 9.72834C13.125 14.1866 16.6868 17.1231 19.8626 16.2863ZM48.7549 13.2738C45.7649 12.5591 42.4762 14.8632 41.4073 18.421C40.3395 21.9787 41.8971 25.442 44.887 26.1567C47.877 26.8713 51.1657 24.5672 52.2346 21.0095C53.3024 17.4517 51.7448 13.9884 48.7549 13.2738ZM32.7096 16.2863C35.8864 17.1221 39.4472 14.1866 40.6629 9.72834C41.8786 5.27011 40.2892 0.979235 37.1123 0.142418C33.9355 -0.694399 30.3747 2.24216 29.159 6.7004C27.9433 11.1586 29.5327 15.4505 32.7096 16.2863Z" fill="black"/>
</svg>
