<svg width="28" height="28" viewBox="0 0 28 28" fill="none" xmlns="http://www.w3.org/2000/svg">
<circle cx="14" cy="14" r="14" fill="white"/>
<path d="M22.5714 11.8571H16.1429V5.42857C16.1429 4.63973 15.5031 4 14.7143 4H13.2857C12.4969 4 11.8571 4.63973 11.8571 5.42857V11.8571H5.42857C4.63973 11.8571 4 12.4969 4 13.2857V14.7143C4 15.5031 4.63973 16.1429 5.42857 16.1429H11.8571V22.5714C11.8571 23.3603 12.4969 24 13.2857 24H14.7143C15.5031 24 16.1429 23.3603 16.1429 22.5714V16.1429H22.5714C23.3603 16.1429 24 15.5031 24 14.7143V13.2857C24 12.4969 23.3603 11.8571 22.5714 11.8571Z" fill="#313131"/>
</svg>
